<svg width="63" height="63" viewBox="0 0 63 63" fill="none" xmlns="http://www.w3.org/2000/svg">
<path d="M49.8748 7.87598H13.1248C10.2253 7.87598 7.87476 10.2265 7.87476 13.126V49.876C7.87476 52.7755 10.2253 55.126 13.1248 55.126H49.8748C52.7743 55.126 55.1248 52.7755 55.1248 49.876V13.126C55.1248 10.2265 52.7743 7.87598 49.8748 7.87598Z" stroke="#0029FF" stroke-width="2.48271" stroke-linecap="round" stroke-linejoin="round"/>
<path d="M22.3123 26.2515C24.4869 26.2515 26.2498 24.4886 26.2498 22.314C26.2498 20.1393 24.4869 18.3765 22.3123 18.3765C20.1376 18.3765 18.3748 20.1393 18.3748 22.314C18.3748 24.4886 20.1376 26.2515 22.3123 26.2515Z" stroke="#0029FF" stroke-width="2.48271" stroke-linecap="round" stroke-linejoin="round"/>
<path d="M55.1252 39.3765L42.0002 26.2515L13.1252 55.1265" stroke="#0029FF" stroke-width="2.48271" stroke-linecap="round" stroke-linejoin="round"/>
</svg>
